<svg width="1440" height="1509" viewBox="0 0 1440 1509" fill="none" xmlns="http://www.w3.org/2000/svg">
	<rect width="1440" height="1509" fill="url(#paint0_linear)"/>
	<g opacity="0.3" clip-path="url(#clip0)" id="dots">
		<path class="dots"
			  d="M176.178 1039.14C176.178 1036.91 177.982 1035.11 180.207 1035.11C182.431 1035.11 184.235 1036.91 184.235 1039.14C184.235 1041.36 182.431 1043.17 180.207 1043.17C178.007 1043.17 176.178 1041.36 176.178 1039.14Z"
			  fill="url(#paint1_linear)"/>
		<path class="dots" d="M180.898 947.82H179.564V1036.79H180.898V947.82Z" fill="url(#paint2_linear)"/>
		<path class="dots"
			  d="M-6.55829 929.581C-6.55829 927.356 -4.75415 925.552 -2.52988 925.552C-0.305605 925.552 1.49852 927.356 1.49852 929.581C1.49852 931.805 -0.305605 933.609 -2.52988 933.609C-4.75415 933.609 -6.55829 931.805 -6.55829 929.581Z"
			  fill="url(#paint3_linear)"/>
		<path class="dots"
			  d="M43.5126 834.901C43.5126 832.677 45.3167 830.873 47.541 830.873C49.7653 830.873 51.5694 832.677 51.5694 834.901C51.5694 837.125 49.7653 838.929 47.541 838.929C45.3167 838.929 43.5126 837.125 43.5126 834.901Z"
			  fill="url(#paint4_linear)"/>
		<path class="dots" d="M48.2329 743.582H46.8984V832.553H48.2329V743.582Z" fill="url(#paint5_linear)"/>
		<path class="dots"
			  d="M83.7472 855.34C83.7472 853.115 85.5513 851.311 87.7756 851.311C89.9999 851.311 91.804 853.115 91.804 855.34C91.804 857.564 89.9999 859.368 87.7756 859.368C85.5761 859.393 83.7472 857.589 83.7472 855.34Z"
			  fill="url(#paint6_linear)"/>
		<path class="dots" d="M88.4676 764.046H87.133V853.041H88.4676V764.046Z" fill="url(#paint7_linear)"/>
		<path class="dots"
			  d="M149.388 1085.08C149.388 1082.86 151.192 1081.05 153.416 1081.05C155.641 1081.05 157.445 1082.86 157.445 1085.08C157.445 1087.31 155.641 1089.11 153.416 1089.11C151.192 1089.11 149.388 1087.31 149.388 1085.08Z"
			  fill="url(#paint8_linear)"/>
		<path class="dots" d="M154.108 993.764H152.774V1082.73H154.108V993.764Z" fill="url(#paint9_linear)"/>
		<path class="dots"
			  d="M211.742 825.954C211.742 823.73 213.546 821.926 215.77 821.926C217.994 821.926 219.799 823.73 219.799 825.954C219.799 828.179 217.994 829.983 215.77 829.983C213.546 829.983 211.742 828.179 211.742 825.954Z"
			  fill="url(#paint10_linear)"/>
		<path class="dots" d="M216.438 734.66H215.103V823.631H216.438V734.66Z" fill="url(#paint11_linear)"/>
		<path class="dots"
			  d="M100.553 822C100.553 819.776 102.357 817.972 104.581 817.972C106.806 817.972 108.61 819.776 108.61 822C108.61 824.224 106.806 826.029 104.581 826.029C102.357 826.029 100.553 824.224 100.553 822Z"
			  fill="url(#paint12_linear)"/>
		<path class="dots" d="M105.273 775.192H103.939V819.677H105.273V775.192Z" fill="url(#paint13_linear)"/>
		<path class="dots"
			  d="M252.495 1045.66C252.495 1043.44 254.3 1041.64 256.524 1041.64C258.748 1041.64 260.552 1043.44 260.552 1045.66C260.552 1047.89 258.748 1049.69 256.524 1049.69C254.324 1049.69 252.495 1047.89 252.495 1045.66Z"
			  fill="url(#paint14_linear)"/>
		<path class="dots" d="M257.216 998.83H255.881V1043.32H257.216V998.83Z" fill="url(#paint15_linear)"/>
		<path class="dots"
			  d="M20.7261 809.94C20.7261 807.715 22.5302 805.911 24.7545 805.911C26.9787 805.911 28.7829 807.715 28.7829 809.94C28.7829 812.164 26.9787 813.968 24.7545 813.968C22.5302 813.968 20.7261 812.164 20.7261 809.94Z"
			  fill="url(#paint16_linear)"/>
		<path class="dots" d="M25.4465 763.106H24.1119V807.592H25.4465V763.106Z" fill="url(#paint17_linear)"/>
		<path class="dots"
			  d="M150.97 748.303C150.97 746.078 152.774 744.274 154.998 744.274C157.222 744.274 159.027 746.078 159.027 748.303C159.027 750.527 157.222 752.331 154.998 752.331C152.799 752.356 150.97 750.527 150.97 748.303Z"
			  fill="url(#paint18_linear)"/>
		<path class="dots" d="M155.69 701.494H154.356V745.979H155.69V701.494Z" fill="url(#paint19_linear)"/>
		<path class="dots"
			  d="M94.918 1073.86C94.918 1071.64 96.7222 1069.83 98.9464 1069.83C101.171 1069.83 102.975 1071.64 102.975 1073.86C102.975 1076.09 101.171 1077.89 98.9464 1077.89C96.7222 1077.89 94.918 1076.09 94.918 1073.86Z"
			  fill="url(#paint20_linear)"/>
		<path class="dots" d="M99.6137 982.543H98.2791V1071.54H99.6137V982.543Z" fill="url(#paint21_linear)"/>
		<path class="dots"
			  d="M210.852 1026.63C210.852 1024.41 212.656 1022.61 214.88 1022.61C217.105 1022.61 218.909 1024.41 218.909 1026.63C218.909 1028.86 217.105 1030.66 214.88 1030.66C212.656 1030.69 210.852 1028.88 210.852 1026.63Z"
			  fill="url(#paint22_linear)"/>
		<path class="dots" d="M215.548 935.339H214.213V1024.34H215.548V935.339Z" fill="url(#paint23_linear)"/>
		<path class="dots"
			  d="M16.6977 1250.82C16.6977 1248.59 18.5018 1246.79 20.7261 1246.79C22.9504 1246.79 24.7545 1248.59 24.7545 1250.82C24.7545 1253.04 22.9504 1254.84 20.7261 1254.84C18.5018 1254.87 16.6977 1253.04 16.6977 1250.82Z"
			  fill="url(#paint24_linear)"/>
		<path class="dots" d="M21.3934 941.468H20.0588V1248.49H21.3934V941.468Z" fill="url(#paint25_linear)"/>
		<path class="dots"
			  d="M187.522 1075.02C187.522 1072.8 189.326 1071 191.55 1071C193.775 1071 195.579 1072.8 195.579 1075.02C195.579 1077.25 193.775 1079.05 191.55 1079.05C189.326 1079.05 187.522 1077.25 187.522 1075.02Z"
			  fill="url(#paint26_linear)"/>
		<path class="dots" d="M192.218 765.677H190.883V1072.7H192.218V765.677Z" fill="url(#paint27_linear)"/>
		<path class="dots"
			  d="M79.0021 1165.01C79.0021 1162.78 80.8062 1160.98 83.0305 1160.98C85.2547 1160.98 87.0589 1162.78 87.0589 1165.01C87.0589 1167.23 85.2547 1169.04 83.0305 1169.04C80.8062 1169.06 79.0021 1167.23 79.0021 1165.01Z"
			  fill="url(#paint28_linear)"/>
		<path class="dots" d="M83.7225 855.686H82.3879V1162.71H83.7225V855.686Z" fill="url(#paint29_linear)"/>
		<path class="dots"
			  d="M164.291 926.862C164.291 924.638 166.095 922.834 168.319 922.834C170.543 922.834 172.347 924.638 172.347 926.862C172.347 929.087 170.543 930.891 168.319 930.891C166.095 930.916 164.291 929.111 164.291 926.862Z"
			  fill="url(#paint30_linear)"/>
		<path class="dots" d="M169.011 754.679H167.676V924.539H169.011V754.679Z" fill="url(#paint31_linear)"/>
		<path class="dots"
			  d="M1307.77 1081.72C1307.77 1079.5 1309.58 1077.69 1311.8 1077.69C1314.03 1077.69 1315.83 1079.5 1315.83 1081.72C1315.83 1083.95 1314.03 1085.75 1311.8 1085.75C1309.58 1085.77 1307.77 1083.95 1307.77 1081.72Z"
			  fill="url(#paint32_linear)"/>
		<path class="dots" d="M1312.47 1017.37H1311.14V1079.42H1312.47V1017.37Z" fill="url(#paint33_linear)"/>
		<path class="dots"
			  d="M1203.85 991.614C1203.85 989.389 1205.66 987.585 1207.88 987.585C1210.1 987.585 1211.91 989.389 1211.91 991.614C1211.91 993.838 1210.1 995.642 1207.88 995.642C1205.66 995.642 1203.85 993.838 1203.85 991.614Z"
			  fill="url(#paint34_linear)"/>
		<path class="dots" d="M1208.55 828.673H1207.21V989.291H1208.55V828.673Z" fill="url(#paint35_linear)"/>
		<path class="dots"
			  d="M1157.91 852.745C1157.91 850.521 1159.71 848.717 1161.94 848.717C1164.16 848.717 1165.96 850.521 1165.96 852.745C1165.96 854.969 1164.16 856.773 1161.94 856.773C1159.74 856.798 1157.91 854.994 1157.91 852.745Z"
			  fill="url(#paint36_linear)"/>
		<path class="dots" d="M1162.63 761.451H1161.29V850.446H1162.63V761.451Z" fill="url(#paint37_linear)"/>
		<path class="dots"
			  d="M1282.64 922.884C1282.64 920.659 1284.44 918.855 1286.67 918.855C1288.89 918.855 1290.7 920.659 1290.7 922.884C1290.7 925.108 1288.89 926.912 1286.67 926.912C1284.44 926.937 1282.64 925.108 1282.64 922.884Z"
			  fill="url(#paint38_linear)"/>
		<path class="dots" d="M1287.34 831.59H1286V920.585H1287.34V831.59Z" fill="url(#paint39_linear)"/>
		<path class="dots"
			  d="M1410.17 929.902C1410.17 927.678 1411.97 925.874 1414.19 925.874C1416.42 925.874 1418.22 927.678 1418.22 929.902C1418.22 932.127 1416.42 933.931 1414.19 933.931C1411.97 933.931 1410.17 932.127 1410.17 929.902Z"
			  fill="url(#paint40_linear)"/>
		<path class="dots" d="M1414.89 838.608H1413.55V927.604H1414.89V838.608Z" fill="url(#paint41_linear)"/>
		<path class="dots"
			  d="M1270.8 997.273C1270.8 995.049 1272.61 993.245 1274.83 993.245C1277.06 993.245 1278.86 995.049 1278.86 997.273C1278.86 999.498 1277.06 1001.3 1274.83 1001.3C1272.61 1001.33 1270.8 999.498 1270.8 997.273Z"
			  fill="url(#paint42_linear)"/>
		<path class="dots" d="M1275.52 828.055H1274.19V994.95H1275.52V828.055Z" fill="url(#paint43_linear)"/>
		<path class="dots"
			  d="M1294.26 966.677C1294.26 964.453 1296.06 962.649 1298.28 962.649C1300.51 962.649 1302.31 964.453 1302.31 966.677C1302.31 968.901 1300.51 970.706 1298.28 970.706C1296.06 970.706 1294.26 968.901 1294.26 966.677Z"
			  fill="url(#paint44_linear)"/>
		<path class="dots" d="M1298.98 831.12H1297.64V964.354H1298.98V831.12Z" fill="url(#paint45_linear)"/>
		<path class="dots"
			  d="M1236.77 1143.66C1236.77 1141.43 1238.58 1139.63 1240.8 1139.63C1243.02 1139.63 1244.83 1141.43 1244.83 1143.66C1244.83 1145.88 1243.02 1147.68 1240.8 1147.68C1238.6 1147.68 1236.77 1145.88 1236.77 1143.66Z"
			  fill="url(#paint46_linear)"/>
		<path class="dots" d="M1241.49 834.308H1240.16V1141.33H1241.49V834.308Z" fill="url(#paint47_linear)"/>
		<path class="dots"
			  d="M1354.29 1010.35C1354.29 1008.12 1356.09 1006.32 1358.32 1006.32C1360.54 1006.32 1362.34 1008.12 1362.34 1010.35C1362.34 1012.57 1360.54 1014.38 1358.32 1014.38C1356.09 1014.38 1354.29 1012.57 1354.29 1010.35Z"
			  fill="url(#paint48_linear)"/>
		<path class="dots" d="M1359.01 701H1357.67V1008.02H1359.01V701Z" fill="url(#paint49_linear)"/>
		<path class="dots"
			  d="M1415.45 1027.52C1415.45 1025.3 1417.26 1023.49 1419.48 1023.49C1421.71 1023.49 1423.51 1025.3 1423.51 1027.52C1423.51 1029.75 1421.71 1031.55 1419.48 1031.55C1417.26 1031.55 1415.45 1029.75 1415.45 1027.52Z"
			  fill="url(#paint50_linear)"/>
		<path class="dots" d="M1420.15 718.176H1418.82V1025.2H1420.15V718.176Z" fill="url(#paint51_linear)"/>
		<path class="dots"
			  d="M1168.61 1211.25C1168.61 1209.02 1170.41 1207.22 1172.64 1207.22C1174.86 1207.22 1176.67 1209.02 1176.67 1211.25C1176.67 1213.47 1174.86 1215.28 1172.64 1215.28C1170.44 1215.28 1168.61 1213.47 1168.61 1211.25Z"
			  fill="url(#paint52_linear)"/>
		<path class="dots" d="M1173.33 901.901H1172V1208.93H1173.33V901.901Z" fill="url(#paint53_linear)"/>
		<path class="dots"
			  d="M1426.43 1089.63C1426.43 1087.41 1428.23 1085.6 1430.46 1085.6C1432.68 1085.6 1434.48 1087.41 1434.48 1089.63C1434.48 1091.85 1432.68 1093.66 1430.46 1093.66C1428.23 1093.66 1426.43 1091.85 1426.43 1089.63Z"
			  fill="url(#paint54_linear)"/>
		<path class="dots" d="M1431.15 780.283H1429.81V1087.31H1431.15V780.283Z" fill="url(#paint55_linear)"/>
		<path class="dots"
			  d="M1115.89 1129.2C1115.89 1126.97 1117.7 1125.17 1119.92 1125.17C1122.15 1125.17 1123.95 1126.97 1123.95 1129.2C1123.95 1131.42 1122.15 1133.23 1119.92 1133.23C1117.7 1133.25 1115.89 1131.45 1115.89 1129.2Z"
			  fill="url(#paint56_linear)"/>
		<path class="dots" d="M1120.59 957.014H1119.26V1126.87H1120.59V957.014Z" fill="url(#paint57_linear)"/>
		<path class="dots"
			  d="M1185.34 944.088C1185.34 941.864 1187.14 940.06 1189.37 940.06C1191.59 940.06 1193.4 941.864 1193.4 944.088C1193.4 946.313 1191.59 948.117 1189.37 948.117C1187.14 948.142 1185.34 946.337 1185.34 944.088Z"
			  fill="url(#paint58_linear)"/>
		<path class="dots" d="M1190.06 818.763H1188.73V941.79H1190.06V818.763Z" fill="url(#paint59_linear)"/>
		<path class="dots"
			  d="M1404.98 1161.2C1404.98 1158.98 1406.78 1157.17 1409 1157.17C1411.23 1157.17 1413.03 1158.98 1413.03 1161.2C1413.03 1163.43 1411.23 1165.23 1409 1165.23C1406.78 1165.23 1404.98 1163.43 1404.98 1161.2Z"
			  fill="url(#paint60_linear)"/>
		<path class="dots" d="M1409.7 988.994H1408.36V1158.85H1409.7V988.994Z" fill="url(#paint61_linear)"/>
	</g>
	<defs>
		<linearGradient id="paint0_linear" x1="1413" y1="9.49993" x2="-98" y2="1596.5">
			<stop stop-color="#214E51"/>
			<stop offset="1" stop-color="#040D3E"/>
		</linearGradient>
		<linearGradient id="paint1_linear" x1="180.224" y1="1016.46" x2="180.224" y2="946.437"
						gradientUnits="userSpaceOnUse">
			<stop stop-color="#214E51"/>
			<stop offset="1" stop-color="#A4FFFF" stop-opacity="0"/>
		</linearGradient>
		<linearGradient id="paint2_linear" x1="180.226" y1="1016.46" x2="180.226" y2="946.438"
						gradientUnits="userSpaceOnUse">
			<stop stop-color="#214E51"/>
			<stop offset="1" stop-color="#A4FFFF" stop-opacity="0"/>
		</linearGradient>
		<linearGradient id="paint3_linear" x1="-2.53013" y1="906.897" x2="-2.53013" y2="836.856"
						gradientUnits="userSpaceOnUse">
			<stop stop-color="#214E51"/>
			<stop offset="1" stop-color="#A4FFFF" stop-opacity="0"/>
		</linearGradient>
		<linearGradient id="paint4_linear" x1="47.557" y1="812.226" x2="47.557" y2="742.207"
						gradientUnits="userSpaceOnUse">
			<stop stop-color="#214E51"/>
			<stop offset="1" stop-color="#A4FFFF" stop-opacity="0"/>
		</linearGradient>
		<linearGradient id="paint5_linear" x1="47.5568" y1="812.225" x2="47.5568" y2="742.207"
						gradientUnits="userSpaceOnUse">
			<stop stop-color="#214E51"/>
			<stop offset="1" stop-color="#A4FFFF" stop-opacity="0"/>
		</linearGradient>
		<linearGradient id="paint6_linear" x1="87.7946" y1="832.675" x2="87.7946" y2="762.653"
						gradientUnits="userSpaceOnUse">
			<stop stop-color="#214E51"/>
			<stop offset="1" stop-color="#A4FFFF" stop-opacity="0"/>
		</linearGradient>
		<linearGradient id="paint7_linear" x1="87.7946" y1="832.676" x2="87.7946" y2="762.657"
						gradientUnits="userSpaceOnUse">
			<stop stop-color="#214E51"/>
			<stop offset="1" stop-color="#A4FFFF" stop-opacity="0"/>
		</linearGradient>
		<linearGradient id="paint8_linear" x1="153.431" y1="1062.41" x2="153.431" y2="992.41"
						gradientUnits="userSpaceOnUse">
			<stop stop-color="#214E51"/>
			<stop offset="1" stop-color="#A4FFFF" stop-opacity="0"/>
		</linearGradient>
		<linearGradient id="paint9_linear" x1="153.432" y1="1062.4" x2="153.432" y2="992.386"
						gradientUnits="userSpaceOnUse">
			<stop stop-color="#214E51"/>
			<stop offset="1" stop-color="#A4FFFF" stop-opacity="0"/>
		</linearGradient>
		<linearGradient id="paint10_linear" x1="215.771" y1="803.282" x2="215.771" y2="733.262"
						gradientUnits="userSpaceOnUse">
			<stop stop-color="#214E51"/>
			<stop offset="1" stop-color="#A4FFFF" stop-opacity="0"/>
		</linearGradient>
		<linearGradient id="paint11_linear" x1="215.77" y1="803.281" x2="215.77" y2="733.263"
						gradientUnits="userSpaceOnUse">
			<stop stop-color="#214E51"/>
			<stop offset="1" stop-color="#A4FFFF" stop-opacity="0"/>
		</linearGradient>
		<linearGradient id="paint12_linear" x1="104.593" y1="799.331" x2="104.593" y2="729.312"
						gradientUnits="userSpaceOnUse">
			<stop stop-color="#214E51"/>
			<stop offset="1" stop-color="#A4FFFF" stop-opacity="0"/>
		</linearGradient>
		<linearGradient id="paint13_linear" x1="104.594" y1="809.508" x2="104.594" y2="774.498"
						gradientUnits="userSpaceOnUse">
			<stop stop-color="#214E51"/>
			<stop offset="1" stop-color="#A4FFFF" stop-opacity="0"/>
		</linearGradient>
		<linearGradient id="paint14_linear" x1="256.542" y1="1022.98" x2="256.542" y2="952.961"
						gradientUnits="userSpaceOnUse">
			<stop stop-color="#214E51"/>
			<stop offset="1" stop-color="#A4FFFF" stop-opacity="0"/>
		</linearGradient>
		<linearGradient id="paint15_linear" x1="256.542" y1="1033.16" x2="256.542" y2="998.148"
						gradientUnits="userSpaceOnUse">
			<stop stop-color="#214E51"/>
			<stop offset="1" stop-color="#A4FFFF" stop-opacity="0"/>
		</linearGradient>
		<linearGradient id="paint16_linear" x1="24.771" y1="787.251" x2="24.771" y2="717.21"
						gradientUnits="userSpaceOnUse">
			<stop stop-color="#214E51"/>
			<stop offset="1" stop-color="#A4FFFF" stop-opacity="0"/>
		</linearGradient>
		<linearGradient id="paint17_linear" x1="24.7711" y1="797.435" x2="24.7711" y2="762.425"
						gradientUnits="userSpaceOnUse">
			<stop stop-color="#214E51"/>
			<stop offset="1" stop-color="#A4FFFF" stop-opacity="0"/>
		</linearGradient>
		<linearGradient id="paint18_linear" x1="155.018" y1="725.635" x2="155.018" y2="655.615"
						gradientUnits="userSpaceOnUse">
			<stop stop-color="#214E51"/>
			<stop offset="1" stop-color="#A4FFFF" stop-opacity="0"/>
		</linearGradient>
		<linearGradient id="paint19_linear" x1="155.02" y1="735.81" x2="155.02" y2="700.804"
						gradientUnits="userSpaceOnUse">
			<stop stop-color="#214E51"/>
			<stop offset="1" stop-color="#A4FFFF" stop-opacity="0"/>
		</linearGradient>
		<linearGradient id="paint20_linear" x1="98.9571" y1="1051.19" x2="98.9571" y2="981.168"
						gradientUnits="userSpaceOnUse">
			<stop stop-color="#214E51"/>
			<stop offset="1" stop-color="#A4FFFF" stop-opacity="0"/>
		</linearGradient>
		<linearGradient id="paint21_linear" x1="98.9558" y1="1051.19" x2="98.9558" y2="981.168"
						gradientUnits="userSpaceOnUse">
			<stop stop-color="#214E51"/>
			<stop offset="1" stop-color="#A4FFFF" stop-opacity="0"/>
		</linearGradient>
		<linearGradient id="paint22_linear" x1="214.887" y1="1003.96" x2="214.887" y2="933.923"
						gradientUnits="userSpaceOnUse">
			<stop stop-color="#214E51"/>
			<stop offset="1" stop-color="#A4FFFF" stop-opacity="0"/>
		</linearGradient>
		<linearGradient id="paint23_linear" x1="214.888" y1="1003.97" x2="214.888" y2="933.952"
						gradientUnits="userSpaceOnUse">
			<stop stop-color="#214E51"/>
			<stop offset="1" stop-color="#A4FFFF" stop-opacity="0"/>
		</linearGradient>
		<linearGradient id="paint24_linear" x1="20.7345" y1="1211.33" x2="20.7345" y2="1086.63"
						gradientUnits="userSpaceOnUse">
			<stop stop-color="#214E51"/>
			<stop offset="1" stop-color="#A4FFFF" stop-opacity="0"/>
		</linearGradient>
		<linearGradient id="paint25_linear" x1="20.7358" y1="1180.13" x2="20.7358" y2="950.739"
						gradientUnits="userSpaceOnUse">
			<stop stop-color="#214E51"/>
			<stop offset="1" stop-color="#A4FFFF" stop-opacity="0"/>
		</linearGradient>
		<linearGradient id="paint26_linear" x1="191.548" y1="1035.53" x2="191.548" y2="910.835"
						gradientUnits="userSpaceOnUse">
			<stop stop-color="#214E51"/>
			<stop offset="1" stop-color="#A4FFFF" stop-opacity="0"/>
		</linearGradient>
		<linearGradient id="paint27_linear" x1="191.55" y1="1004.33" x2="191.55" y2="774.943"
						gradientUnits="userSpaceOnUse">
			<stop stop-color="#214E51"/>
			<stop offset="1" stop-color="#A4FFFF" stop-opacity="0"/>
		</linearGradient>
		<linearGradient id="paint28_linear" x1="83.0448" y1="1125.52" x2="83.0448" y2="1000.82"
						gradientUnits="userSpaceOnUse">
			<stop stop-color="#214E51"/>
			<stop offset="1" stop-color="#A4FFFF" stop-opacity="0"/>
		</linearGradient>
		<linearGradient id="paint29_linear" x1="83.0461" y1="1094.32" x2="83.0461" y2="864.932"
						gradientUnits="userSpaceOnUse">
			<stop stop-color="#214E51"/>
			<stop offset="1" stop-color="#A4FFFF" stop-opacity="0"/>
		</linearGradient>
		<linearGradient id="paint30_linear" x1="168.33" y1="887.369" x2="168.33" y2="762.632"
						gradientUnits="userSpaceOnUse">
			<stop stop-color="#214E51"/>
			<stop offset="1" stop-color="#A4FFFF" stop-opacity="0"/>
		</linearGradient>
		<linearGradient id="paint31_linear" x1="168.33" y1="886.724" x2="168.33" y2="759.809"
						gradientUnits="userSpaceOnUse">
			<stop stop-color="#214E51"/>
			<stop offset="1" stop-color="#A4FFFF" stop-opacity="0"/>
		</linearGradient>
		<linearGradient id="paint32_linear" x1="1311.8" y1="1059.07" x2="1311.8" y2="989.068"
						gradientUnits="userSpaceOnUse">
			<stop stop-color="#214E51"/>
			<stop offset="1" stop-color="#A4FFFF" stop-opacity="0"/>
		</linearGradient>
		<linearGradient id="paint33_linear" x1="1311.8" y1="1065.22" x2="1311.8" y2="1016.39"
						gradientUnits="userSpaceOnUse">
			<stop stop-color="#214E51"/>
			<stop offset="1" stop-color="#A4FFFF" stop-opacity="0"/>
		</linearGradient>
		<linearGradient id="paint34_linear" x1="1207.88" y1="968.943" x2="1207.88" y2="898.923"
						gradientUnits="userSpaceOnUse">
			<stop stop-color="#214E51"/>
			<stop offset="1" stop-color="#A4FFFF" stop-opacity="0"/>
		</linearGradient>
		<linearGradient id="paint35_linear" x1="1207.88" y1="952.561" x2="1207.88" y2="826.179"
						gradientUnits="userSpaceOnUse">
			<stop stop-color="#214E51"/>
			<stop offset="1" stop-color="#A4FFFF" stop-opacity="0"/>
		</linearGradient>
		<linearGradient id="paint36_linear" x1="1161.96" y1="830.083" x2="1161.96" y2="760.063"
						gradientUnits="userSpaceOnUse">
			<stop stop-color="#214E51"/>
			<stop offset="1" stop-color="#A4FFFF" stop-opacity="0"/>
		</linearGradient>
		<linearGradient id="paint37_linear" x1="1161.96" y1="830.083" x2="1161.96" y2="760.064"
						gradientUnits="userSpaceOnUse">
			<stop stop-color="#214E51"/>
			<stop offset="1" stop-color="#A4FFFF" stop-opacity="0"/>
		</linearGradient>
		<linearGradient id="paint38_linear" x1="1286.67" y1="900.207" x2="1286.67" y2="830.166"
						gradientUnits="userSpaceOnUse">
			<stop stop-color="#214E51"/>
			<stop offset="1" stop-color="#A4FFFF" stop-opacity="0"/>
		</linearGradient>
		<linearGradient id="paint39_linear" x1="1286.67" y1="900.213" x2="1286.67" y2="830.194"
						gradientUnits="userSpaceOnUse">
			<stop stop-color="#214E51"/>
			<stop offset="1" stop-color="#A4FFFF" stop-opacity="0"/>
		</linearGradient>
		<linearGradient id="paint40_linear" x1="1414.21" y1="907.234" x2="1414.21" y2="837.214"
						gradientUnits="userSpaceOnUse">
			<stop stop-color="#214E51"/>
			<stop offset="1" stop-color="#A4FFFF" stop-opacity="0"/>
		</linearGradient>
		<linearGradient id="paint41_linear" x1="1414.21" y1="907.234" x2="1414.21" y2="837.215"
						gradientUnits="userSpaceOnUse">
			<stop stop-color="#214E51"/>
			<stop offset="1" stop-color="#A4FFFF" stop-opacity="0"/>
		</linearGradient>
		<linearGradient id="paint42_linear" x1="1274.85" y1="957.788" x2="1274.85" y2="833.089"
						gradientUnits="userSpaceOnUse">
			<stop stop-color="#214E51"/>
			<stop offset="1" stop-color="#A4FFFF" stop-opacity="0"/>
		</linearGradient>
		<linearGradient id="paint43_linear" x1="1274.85" y1="957.79" x2="1274.85" y2="833.092"
						gradientUnits="userSpaceOnUse">
			<stop stop-color="#214E51"/>
			<stop offset="1" stop-color="#A4FFFF" stop-opacity="0"/>
		</linearGradient>
		<linearGradient id="paint44_linear" x1="1298.3" y1="927.18" x2="1298.3" y2="802.481"
						gradientUnits="userSpaceOnUse">
			<stop stop-color="#214E51"/>
			<stop offset="1" stop-color="#A4FFFF" stop-opacity="0"/>
		</linearGradient>
		<linearGradient id="paint45_linear" x1="1298.3" y1="934.675" x2="1298.3" y2="835.127"
						gradientUnits="userSpaceOnUse">
			<stop stop-color="#214E51"/>
			<stop offset="1" stop-color="#A4FFFF" stop-opacity="0"/>
		</linearGradient>
		<linearGradient id="paint46_linear" x1="1240.82" y1="1104.17" x2="1240.82" y2="979.467"
						gradientUnits="userSpaceOnUse">
			<stop stop-color="#214E51"/>
			<stop offset="1" stop-color="#A4FFFF" stop-opacity="0"/>
		</linearGradient>
		<linearGradient id="paint47_linear" x1="1240.82" y1="1072.96" x2="1240.82" y2="843.573"
						gradientUnits="userSpaceOnUse">
			<stop stop-color="#214E51"/>
			<stop offset="1" stop-color="#A4FFFF" stop-opacity="0"/>
		</linearGradient>
		<linearGradient id="paint48_linear" x1="1358.33" y1="970.841" x2="1358.33" y2="846.104"
						gradientUnits="userSpaceOnUse">
			<stop stop-color="#214E51"/>
			<stop offset="1" stop-color="#A4FFFF" stop-opacity="0"/>
		</linearGradient>
		<linearGradient id="paint49_linear" x1="1358.33" y1="939.647" x2="1358.33" y2="710.259"
						gradientUnits="userSpaceOnUse">
			<stop stop-color="#214E51"/>
			<stop offset="1" stop-color="#A4FFFF" stop-opacity="0"/>
		</linearGradient>
		<linearGradient id="paint50_linear" x1="1419.49" y1="988.022" x2="1419.49" y2="863.288"
						gradientUnits="userSpaceOnUse">
			<stop stop-color="#214E51"/>
			<stop offset="1" stop-color="#A4FFFF" stop-opacity="0"/>
		</linearGradient>
		<linearGradient id="paint51_linear" x1="1419.49" y1="956.831" x2="1419.49" y2="727.441"
						gradientUnits="userSpaceOnUse">
			<stop stop-color="#214E51"/>
			<stop offset="1" stop-color="#A4FFFF" stop-opacity="0"/>
		</linearGradient>
		<linearGradient id="paint52_linear" x1="1172.66" y1="1171.76" x2="1172.66" y2="1047.06"
						gradientUnits="userSpaceOnUse">
			<stop stop-color="#214E51"/>
			<stop offset="1" stop-color="#A4FFFF" stop-opacity="0"/>
		</linearGradient>
		<linearGradient id="paint53_linear" x1="1172.66" y1="1140.55" x2="1172.66" y2="911.168"
						gradientUnits="userSpaceOnUse">
			<stop stop-color="#214E51"/>
			<stop offset="1" stop-color="#A4FFFF" stop-opacity="0"/>
		</linearGradient>
		<linearGradient id="paint54_linear" x1="1430.47" y1="1050.15" x2="1430.47" y2="925.485"
						gradientUnits="userSpaceOnUse">
			<stop stop-color="#214E51"/>
			<stop offset="1" stop-color="#A4FFFF" stop-opacity="0"/>
		</linearGradient>
		<linearGradient id="paint55_linear" x1="1430.47" y1="1018.93" x2="1430.47" y2="789.542"
						gradientUnits="userSpaceOnUse">
			<stop stop-color="#214E51"/>
			<stop offset="1" stop-color="#A4FFFF" stop-opacity="0"/>
		</linearGradient>
		<linearGradient id="paint56_linear" x1="1119.93" y1="1089.72" x2="1119.93" y2="965.021"
						gradientUnits="userSpaceOnUse">
			<stop stop-color="#214E51"/>
			<stop offset="1" stop-color="#A4FFFF" stop-opacity="0"/>
		</linearGradient>
		<linearGradient id="paint57_linear" x1="1119.93" y1="1089.06" x2="1119.93" y2="962.146"
						gradientUnits="userSpaceOnUse">
			<stop stop-color="#214E51"/>
			<stop offset="1" stop-color="#A4FFFF" stop-opacity="0"/>
		</linearGradient>
		<linearGradient id="paint58_linear" x1="1189.39" y1="904.61" x2="1189.39" y2="779.912"
						gradientUnits="userSpaceOnUse">
			<stop stop-color="#214E51"/>
			<stop offset="1" stop-color="#A4FFFF" stop-opacity="0"/>
		</linearGradient>
		<linearGradient id="paint59_linear" x1="1189.39" y1="914.384" x2="1189.39" y2="822.474"
						gradientUnits="userSpaceOnUse">
			<stop stop-color="#214E51"/>
			<stop offset="1" stop-color="#A4FFFF" stop-opacity="0"/>
		</linearGradient>
		<linearGradient id="paint60_linear" x1="1409.02" y1="1121.72" x2="1409.02" y2="997.055"
						gradientUnits="userSpaceOnUse">
			<stop stop-color="#214E51"/>
			<stop offset="1" stop-color="#A4FFFF" stop-opacity="0"/>
		</linearGradient>
		<linearGradient id="paint61_linear" x1="1409.02" y1="1121.04" x2="1409.02" y2="994.129"
						gradientUnits="userSpaceOnUse">
			<stop stop-color="#214E51"/>
			<stop offset="1" stop-color="#A4FFFF" stop-opacity="0"/>
		</linearGradient>
		<clipPath id="clip0">
			<rect width="1537" height="572" fill="white" transform="translate(-33 701)"/>
		</clipPath>
	</defs>
</svg>
